<?xml version="1.0" encoding="utf-8"?>
<!-- Generator: Adobe Illustrator 19.1.0, SVG Export Plug-In . SVG Version: 6.00 Build 0)  -->
<svg version="1.1" id="Layer_1" xmlns="http://www.w3.org/2000/svg" xmlns:xlink="http://www.w3.org/1999/xlink" x="0px" y="0px"
	 viewBox="0 0 550.5 134.7" style="enable-background:new 0 0 550.5 134.7;" xml:space="preserve">
<style type="text/css">
	.st0{fill:#F18F21;}
	.st1{fill:#FFFFFF;}
	.st2{fill-rule:evenodd;clip-rule:evenodd;fill:#00A6D1;}
</style>
<rect x="183.8" y="4.3" class="st0" width="52.3" height="54.5"/>
<g>
	<path class="st1" d="M212.4,35.1v-8.3h7.9v8.3h5.2v6.9h-5.2v8.5h-7.9v-8.5h-18v-6l12.3-23.2h8.2l-11.6,22.3H212.4z"/>
</g>
<g>
	<path class="st0" d="M263.9,4.3c17,0,28.8,11.2,28.8,27.3c0,16.1-12,27.3-29.2,27.3h-22.7V4.3H263.9z M253,48.5h11.2
		c9.1,0,15.9-6.9,15.9-16.8c0-10.1-7-17-16.4-17H253V48.5z"/>
</g>
<g>
	<path class="st0" d="M333.2,48.9v9.5h-31.1V10.1h10.7v38.8H333.2z"/>
	<path class="st0" d="M373.6,39.9c0,11.3-7.9,19-19.5,19c-11.7,0-19.6-7.7-19.6-19c0-11.4,7.9-18.9,19.6-18.9
		C365.8,21,373.6,28.5,373.6,39.9z M345,40c0,6.1,3.7,10.2,9.1,10.2c5.4,0,9.1-4.1,9.1-10.2c0-6.1-3.7-10.2-9.1-10.2
		C348.7,29.8,345,33.9,345,40z"/>
	<path class="st0" d="M415.3,35.1v23.3h-10.4V38.2c0-4.7-2.7-7.6-7.2-7.6c-5.2,0.1-8.3,4.1-8.3,9.5v18.3h-10.4V21.3h10.4v6.5
		c2.6-4.6,6.9-6.8,12.6-6.9C410,20.9,415.3,26.4,415.3,35.1z"/>
	<path class="st0" d="M458.6,58.4h-10.4V53c-2.6,3.8-6.5,5.9-11.5,5.9c-10.4,0-17.2-7.7-17.2-19.1c0-11.3,6.8-18.8,17-18.8
		c5.2,0,9.2,2.1,11.8,5.9V7.2h10.4V58.4z M448.2,40c0-6.1-3.7-10.3-9.1-10.3c-5.4,0-9.2,4.3-9.2,10.3c0.1,6.1,3.7,10.3,9.2,10.3
		C444.5,50.3,448.2,46.1,448.2,40z"/>
	<path class="st0" d="M503.3,39.9c0,11.3-7.9,19-19.5,19c-11.7,0-19.6-7.7-19.6-19c0-11.4,7.9-18.9,19.6-18.9
		C495.5,21,503.3,28.5,503.3,39.9z M474.7,40c0,6.1,3.7,10.2,9.1,10.2c5.4,0,9.1-4.1,9.1-10.2c0-6.1-3.7-10.2-9.1-10.2
		C478.4,29.8,474.7,33.9,474.7,40z"/>
	<path class="st0" d="M545,35.1v23.3h-10.4V38.2c0-4.7-2.7-7.6-7.2-7.6c-5.2,0.1-8.3,4.1-8.3,9.5v18.3h-10.4V21.3H519v6.5
		c2.6-4.6,6.9-6.8,12.6-6.9C539.7,20.9,545,26.4,545,35.1z"/>
</g>
<g id="Forma_1_copy">
	<g>
		<path class="st2" d="M87.4,53.3c2.6,0,5.1,0.5,7.3,1.5c0.2-3.6,1.4-7,3.5-9.7c-1.4-0.3-2.9-0.5-4.4-0.5H79.5c-1.5,0-3,0.2-4.4,0.4
			c2.2,3,3.5,6.6,3.5,10.5C81.2,54.1,84.2,53.3,87.4,53.3z M86.6,43.5c9.3,0,16.8-7.4,16.8-16.6c0-9.2-7.5-16.6-16.8-16.6
			c-9.3,0-16.8,7.4-16.8,16.6C69.8,36,77.3,43.5,86.6,43.5z M113,71.8c8.6,0,15.5-6.9,15.5-15.3c0-8.5-6.9-15.3-15.5-15.3
			c-8.5,0-15.4,6.7-15.5,15.1c4.9,3,8.3,8.2,8.9,14.1C108.5,71.3,110.7,71.8,113,71.8z M60.2,41.2c-8.6,0-15.5,6.9-15.5,15.3
			c0,8.5,6.9,15.3,15.5,15.3c3,0,5.9-0.9,8.2-2.4c0.8-4.9,3.4-9.2,7.2-12.1c0-0.3,0-0.6,0-0.9C75.7,48,68.8,41.2,60.2,41.2z
			 M123.1,40.9c4.9,3,8.3,8.2,8.9,14.1c2,0.9,4.2,1.5,6.5,1.5c8.6,0,15.5-6.9,15.5-15.3c0-8.5-6.9-15.3-15.5-15.3
			C130.1,25.8,123.2,32.5,123.1,40.9z M87.4,87.7c8.6,0,15.5-6.9,15.5-15.3c0-8.5-6.9-15.3-15.5-15.3c-8.6,0-15.5,6.9-15.5,15.3
			C71.9,80.8,78.8,87.7,87.4,87.7z M119.6,72.9h-13.1c-0.1,5.2-2.4,9.8-5.9,13.2c9.7,2.9,16.8,11.8,16.8,22.3v4.9
			c12.9-0.5,20.3-4.1,20.8-4.3l1-0.5h0.1V92.5C139.5,81.7,130.6,72.9,119.6,72.9z M145.2,57.5h-13.1c-0.1,5.2-2.4,9.8-5.9,13.2
			c9.7,2.9,16.8,11.8,16.8,22.3v4.9c12.9-0.5,20.3-4.1,20.8-4.3l1-0.5h0.1V77.1C165,66.3,156.1,57.5,145.2,57.5z M74.1,86
			c-3.5-3.3-5.7-8-5.9-13.1c-0.5,0-1-0.1-1.5-0.1H53.6c-10.9,0-19.9,8.8-19.9,19.6v15.9l0,0.2l1.1,0.3c8.4,2.6,15.9,3.8,22.4,4.2
			v-4.8C57.3,97.8,64.4,88.9,74.1,86z M94,88.7H80.8c-10.9,0-19.9,8.8-19.9,19.6v15.9l0,0.2l1.1,0.3c10.4,3.2,19.5,4.3,27,4.3
			c14.6,0,23-4.1,23.6-4.4l1-0.5h0.1v-15.9C113.8,97.5,104.9,88.7,94,88.7z M34.4,56.9c2.3,0,4.6-0.5,6.5-1.5
			c0.6-6,4.1-11.1,8.9-14.1c-0.1-8.4-7-15.1-15.5-15.1c-8.6,0-15.5,6.9-15.5,15.3C18.9,50,25.9,56.9,34.4,56.9z M46.8,71.1
			c-3.5-3.3-5.8-8-5.9-13.2H27.8C16.9,57.9,8,66.8,8,77.6v15.9h0.1l1,0.5c0.5,0.2,7.9,3.9,20.8,4.3v-4.9
			C29.9,82.9,37.1,74,46.8,71.1z M52.5,39.7c1.9-0.7,4.7-1.7,7.4-1.7c3.2,0,6.2,0.8,9,2.3c0.6-0.6,1.2-1.2,1.7-1.9
			c-2.6-3.4-4-7.6-4-11.8c0-2.9,0.7-5.7,1.9-8.3c-2.8-2.5-6.4-3.9-10.3-3.9c-7,0-13,4.7-14.8,11.2C48.6,28.6,52,33.8,52.5,39.7z
			 M102.8,37.5c0.5,0.8,1.2,1.6,1.9,2.4c2.5-1.3,5.3-1.9,8.2-1.9c2.8,0,5.4,0.7,7.2,1.3c0.5-6.4,4.4-12,10.3-14.8
			c-2.1-6-7.9-10.1-14.5-10.1c-4.2,0-8.2,1.7-11.1,4.7c1,2.4,1.5,4.9,1.5,7.5C106.2,30.5,105,34.3,102.8,37.5z"/>
	</g>
</g>
<rect x="183.3" y="68.5" class="st2" width="361.7" height="55.3"/>
<g>
	<path class="st1" d="M223.6,98.1c0,6-3.8,9.6-9.9,9.6c-6.2,0-10-3.6-10-9.6V84.8h3.9v13.3c0,3.8,2.4,6.2,6.1,6.2c3.7,0,6-2.3,6-6.2
		V84.8h3.9V98.1z"/>
	<path class="st1" d="M256.2,86.9l-1.6,3.4c-2.5-1.5-5-2.1-6.7-2.1c-2.3,0-3.7,0.8-3.7,2.4c0,5,12.3,2.3,12.3,10.5
		c0,4.1-3.6,6.6-8.6,6.6c-3.6,0-7-1.5-9.3-3.6l1.7-3.3c2.4,2.1,5.3,3.3,7.7,3.3c2.7,0,4.3-1,4.3-2.8c0-5.1-12.3-2.2-12.3-10.3
		c0-3.9,3.4-6.3,8.3-6.3C251.2,84.6,254.1,85.5,256.2,86.9z"/>
	<path class="st1" d="M276.4,88.2v6.2h11.2v3.5h-11.2v6.3h12.9v3.5h-16.7V84.8h16.3v3.4H276.4z"/>
	<path class="st1" d="M315.9,100.6c-0.3,0-0.7,0-1,0h-5.4v6.9h-3.9V84.8h9.3c5.8,0,9.2,2.8,9.2,7.8c0,3.6-1.7,6.2-4.7,7.4l5.1,7.6
		H320L315.9,100.6z M314.8,97.2c3.5,0,5.5-1.5,5.5-4.6c0-3-2-4.4-5.5-4.4h-5.4v9H314.8z"/>
	<path class="st1" d="M379.7,96.3v8.4c-2.3,1.8-5.7,3-8.9,3c-6.8,0-12-5-12-11.6c0-6.5,5.3-11.5,12.2-11.5c3.3,0,6.5,1.2,8.8,3.2
		l-2.2,2.8c-1.8-1.6-4.2-2.6-6.6-2.6c-4.7,0-8.3,3.5-8.3,8.1c0,4.6,3.7,8.1,8.4,8.1c1.7,0,3.6-0.6,5.3-1.6v-6.3H379.7z"/>
	<path class="st1" d="M407.1,100.6c-0.3,0-0.7,0-1,0h-5.4v6.9h-3.9V84.8h9.3c5.8,0,9.2,2.8,9.2,7.8c0,3.6-1.7,6.2-4.7,7.4l5.1,7.6
		h-4.4L407.1,100.6z M406,97.2c3.5,0,5.5-1.5,5.5-4.6c0-3-2-4.4-5.5-4.4h-5.4v9H406z"/>
	<path class="st1" d="M454.3,96.2c0,6.5-5.3,11.6-12.1,11.6s-12.1-5-12.1-11.6c0-6.5,5.3-11.5,12.1-11.5S454.3,89.6,454.3,96.2z
		 M434,96.2c0,4.5,3.8,8.1,8.2,8.1s8.1-3.6,8.1-8.1c0-4.5-3.7-8-8.1-8C437.7,88.1,434,91.6,434,96.2z"/>
	<path class="st1" d="M489.4,98.1c0,6-3.8,9.6-9.9,9.6c-6.2,0-10-3.6-10-9.6V84.8h3.9v13.3c0,3.8,2.4,6.2,6.1,6.2c3.7,0,6-2.3,6-6.2
		V84.8h3.9V98.1z"/>
	<path class="st1" d="M515.6,84.8c5.7,0,9,2.8,9,7.8c0,5.1-3.3,8.1-9,8.1h-5.3v6.9h-3.9V84.8H515.6z M510.3,97.2h5.1
		c3.5,0,5.5-1.5,5.5-4.6c0-3-2-4.4-5.5-4.4h-5.1V97.2z"/>
</g>
</svg>
