<?xml version="1.0" encoding="utf-8"?>
<!-- Generator: Adobe Illustrator 19.1.0, SVG Export Plug-In . SVG Version: 6.00 Build 0)  -->
<svg version="1.1" id="Layer_1" xmlns="http://www.w3.org/2000/svg" xmlns:xlink="http://www.w3.org/1999/xlink" x="0px" y="0px"
	 viewBox="-245.4 379.5 68.6 38.7" style="enable-background:new -245.4 379.5 68.6 38.7;" xml:space="preserve">
<style type="text/css">
	.st0{fill:#00A5D5;}
	.st1{fill:#FFFFFF;}
	.st2{fill:#C7C6BF;stroke:#BCBEC0;stroke-miterlimit:10;}
	.st3{fill:#4C4C4C;}
	.st4{font-family:'Copperplate';}
	.st5{font-size:18px;}
</style>
<rect x="-242.8" y="379.5" class="st0" width="44.2" height="35.5"/>
<g>
	<path class="st1" d="M-237.8,399l8.3-11.2h3.3v11.6h2.6v3h-2.6v4.5h-3.5v-4.5h-8.1V399z M-229.7,392.5l-5.2,6.9h5.2V392.5
		L-229.7,392.5z"/>
	<path class="st1" d="M-212.4,387.5c5,0,9,3.1,9,9.6c0,5.5-3.1,9.8-9.5,9.8h-7.5v-19.5H-212.4z M-213.1,403.5c3,0,5.8-1.7,5.8-6.1
		c0-4.6-2-6.5-5.4-6.5h-3.5v12.6H-213.1z"/>
</g>
<path class="st2" d="M-244.7,379.5V415V379.5z"/>
<path class="st2" d="M-242.6,416.6h65.8H-242.6z"/>
<rect x="-198.8" y="379.5" class="st3" width="21.9" height="35.5"/>
<text transform="matrix(4.489659e-11 -1 1 4.489659e-11 -183.2708 410.666)" class="st1 st4 st5">DB</text>
</svg>
